<?xml version="1.0" standalone="no"?>
<!DOCTYPE svg PUBLIC "-//W3C//DTD SVG 20010904//EN"
 "http://www.w3.org/TR/2001/REC-SVG-20010904/DTD/svg10.dtd">
<svg version="1.0" xmlns="http://www.w3.org/2000/svg"
 width="500.000000pt" height="500.000000pt" viewBox="0 0 500.000000 500.000000"
 preserveAspectRatio="xMidYMid meet">

<g transform="translate(0.000000,500.000000) scale(0.100000,-0.100000)"
fill="#000000" stroke="none">
<path d="M0 2500 l0 -2500 2500 0 2500 0 0 2500 0 2500 -2500 0 -2500 0 0
-2500z m2627 667 c27 -14 74 -52 103 -84 29 -32 65 -63 80 -69 44 -19 48 -89
6 -116 -20 -13 -69 -8 -88 9 -20 18 -24 73 -6 91 9 9 5 21 -18 54 -32 46 -136
108 -180 108 -21 0 -24 -4 -24 -39 0 -37 3 -40 38 -51 98 -32 148 -109 139
-217 l-5 -65 49 -30 c48 -29 49 -30 34 -58 -37 -72 -169 -150 -254 -150 -25 0
-44 -7 -56 -20 -39 -43 -115 -11 -115 49 0 33 39 71 72 71 11 0 33 -13 48 -30
33 -36 60 -38 132 -10 46 17 128 82 128 102 0 4 -13 14 -29 23 -28 14 -31 13
-81 -20 -28 -19 -67 -37 -88 -41 -50 -10 -119 11 -166 48 l-40 32 -47 -27
c-42 -23 -50 -25 -63 -12 -45 45 -55 206 -19 287 15 32 20 59 16 82 -4 26 0
39 16 55 44 44 121 13 121 -48 0 -34 -44 -75 -72 -67 -53 13 -88 -189 -44
-250 12 -15 15 -15 45 0 30 16 31 19 24 54 -22 112 33 207 140 242 l37 12 0
60 0 61 58 -5 c33 -3 80 -17 109 -31z m-1177 -897 c0 -43 -3 -50 -20 -50 -17
0 -20 7 -20 50 0 43 3 50 20 50 17 0 20 -7 20 -50z m140 35 c0 -12 -14 -15
-65 -15 -51 0 -65 3 -65 15 0 12 14 15 65 15 51 0 65 -3 65 -15z m120 -70 c0
-78 -2 -85 -20 -85 -18 0 -20 7 -20 85 0 78 2 85 20 85 18 0 20 -7 20 -85z
m140 70 c0 -12 -14 -15 -65 -15 -51 0 -65 3 -65 15 0 12 14 15 65 15 51 0 65
-3 65 -15z m80 -70 c0 -78 -2 -85 -20 -85 -18 0 -20 7 -20 85 0 78 2 85 20 85
18 0 20 -7 20 -85z m150 70 c0 -12 -14 -15 -65 -15 -51 0 -65 3 -65 15 0 12
14 15 65 15 51 0 65 -3 65 -15z m80 -55 c0 -63 -2 -70 -20 -70 -18 0 -20 7
-20 70 0 63 2 70 20 70 18 0 20 -7 20 -70z m178 3 c-2 -55 -6 -68 -20 -71 -16
-3 -18 5 -18 67 0 65 2 71 20 71 19 0 21 -5 18 -67z m82 -18 c0 -78 -2 -85
-20 -85 -18 0 -20 7 -20 85 0 78 2 85 20 85 18 0 20 -7 20 -85z m120 70 c0
-11 -12 -15 -50 -15 -38 0 -50 4 -50 15 0 11 12 15 50 15 38 0 50 -4 50 -15z
m50 -21 c0 -28 -3 -35 -17 -32 -12 2 -19 14 -21 36 -3 27 0 32 17 32 17 0 21
-6 21 -36z m120 -49 c0 -78 -2 -85 -20 -85 -18 0 -20 7 -20 85 0 78 2 85 20
85 18 0 20 -7 20 -85z m140 70 c0 -12 -13 -15 -60 -15 -47 0 -60 3 -60 15 0
12 13 15 60 15 47 0 60 -3 60 -15z m150 -70 c0 -78 -2 -85 -20 -85 -18 0 -20
7 -20 85 0 78 2 85 20 85 18 0 20 -7 20 -85z m180 0 c0 -78 -2 -85 -20 -85
-18 0 -20 7 -20 85 0 78 2 85 20 85 18 0 20 -7 20 -85z m80 0 c0 -78 -2 -85
-20 -85 -18 0 -20 7 -20 85 0 78 2 85 20 85 18 0 20 -7 20 -85z m140 70 c0
-12 -13 -15 -60 -15 -47 0 -60 3 -60 15 0 12 13 15 60 15 47 0 60 -3 60 -15z
m210 0 c0 -12 -17 -15 -90 -15 -73 0 -90 3 -90 15 0 12 17 15 90 15 73 0 90
-3 90 -15z m-522 -58 c39 -39 41 -45 27 -57 -14 -12 -22 -7 -62 32 -42 42 -50
68 -19 68 6 0 31 -20 54 -43z m452 -37 c0 -53 -2 -60 -20 -60 -18 0 -20 7 -20
60 0 53 2 60 20 60 18 0 20 -7 20 -60z m-1970 25 c0 -12 -13 -15 -55 -15 -42
0 -55 3 -55 15 0 12 13 15 55 15 42 0 55 -3 55 -15z m60 -35 c0 -43 -3 -50
-20 -50 -17 0 -20 7 -20 50 0 43 3 50 20 50 17 0 20 -7 20 -50z m160 35 c0
-10 -11 -15 -35 -15 -24 0 -35 5 -35 15 0 10 11 15 35 15 24 0 35 -5 35 -15z
m750 0 c0 -11 -12 -15 -50 -15 -38 0 -50 4 -50 15 0 11 12 15 50 15 38 0 50
-4 50 -15z m250 0 c0 -10 -10 -15 -30 -15 -20 0 -30 5 -30 15 0 10 10 15 30
15 20 0 30 -5 30 -15z m550 0 c0 -10 -10 -15 -30 -15 -20 0 -30 5 -30 15 0 10
10 15 30 15 20 0 30 -5 30 -15z m-726 -24 c26 -27 31 -61 8 -61 -16 0 -74 68
-68 79 12 18 31 12 60 -18z m-1044 -46 c0 -12 -16 -15 -80 -15 -64 0 -80 3
-80 15 0 12 16 15 80 15 64 0 80 -3 80 -15z m280 0 c0 -12 -14 -15 -65 -15
-51 0 -65 3 -65 15 0 12 14 15 65 15 51 0 65 -3 65 -15z m230 0 c0 -12 -14
-15 -65 -15 -51 0 -65 3 -65 15 0 12 14 15 65 15 51 0 65 -3 65 -15z m200 0
c0 -12 -13 -15 -55 -15 -42 0 -55 3 -55 15 0 12 13 15 55 15 42 0 55 -3 55
-15z m570 0 c0 -12 -13 -15 -60 -15 -47 0 -60 3 -60 15 0 12 13 15 60 15 47 0
60 -3 60 -15z m550 0 c0 -12 -13 -15 -60 -15 -47 0 -60 3 -60 15 0 12 13 15
60 15 47 0 60 -3 60 -15z"/>
<path d="M2236 3104 c-4 -10 -2 -22 3 -27 15 -15 46 -3 46 18 0 26 -40 33 -49
9z"/>
<path d="M2410 3018 c-65 -34 -85 -67 -85 -141 0 -49 5 -69 23 -95 31 -43 77
-65 133 -66 169 0 219 235 65 305 -54 24 -83 24 -136 -3z m133 -89 c55 -67
-23 -165 -101 -125 -51 26 -59 90 -16 133 21 21 32 24 62 19 20 -3 45 -15 55
-27z"/>
<path d="M2458 2909 c-40 -23 -6 -89 36 -73 26 10 32 55 11 71 -22 15 -25 16
-47 2z"/>
<path d="M2754 2965 c-8 -20 4 -35 27 -35 14 0 19 7 19 25 0 18 -5 25 -20 25
-11 0 -23 -7 -26 -15z"/>
<path d="M2381 2596 c-15 -18 -3 -46 19 -46 10 0 21 7 24 16 6 16 -9 44 -24
44 -4 0 -13 -6 -19 -14z"/>
</g>
</svg>
